<?xml version="1.0" encoding="iso-8859-1"?>
<!-- Generator: Adobe Illustrator 19.0.0, SVG Export Plug-In . SVG Version: 6.00 Build 0)  -->
<svg version="1.1" id="Capa_1" xmlns="http://www.w3.org/2000/svg" xmlns:xlink="http://www.w3.org/1999/xlink" x="0px" y="0px"
	 viewBox="0 0 512.003 512.003" style="enable-background:new 0 0 512.003 512.003;" xml:space="preserve">
<path style="fill:#455A64;" d="M449.562,128.003l-384-53.333c-3.077-0.471-6.204,0.452-8.533,2.517
	c-2.333,2.06-3.65,5.037-3.605,8.149v362.667c-2.644,32.6,21.641,61.171,54.241,63.814c1.267,0.103,2.536,0.165,3.807,0.186H448.09
	c5.891,0,10.667-4.776,10.667-10.667V138.669C458.808,133.308,454.872,128.742,449.562,128.003z"/>
<path style="fill:#ECEFF1;" d="M170.757,138.669h-48.619c-30.389,0.32-55.799-23.026-58.048-53.333V64.003
	c2.249-30.308,27.659-53.653,58.048-53.333H448.09c-28.011,28.011-27.563,100.437,0,128H170.757z"/>
<path style="fill:#455A64;" d="M448.09,149.336H122.138c-36.27,0.309-66.449-27.8-68.715-64V64.003
	c2.266-36.2,32.445-64.309,68.715-64H448.09c5.891-0.011,10.675,4.757,10.686,10.648c0.005,2.84-1.123,5.565-3.134,7.571
	c-23.744,23.744-23.744,89.173,0,112.917c4.159,4.172,4.149,10.926-0.024,15.085C453.62,148.216,450.913,149.335,448.09,149.336z
	 M122.138,21.336c-24.513-0.335-45.155,18.252-47.381,42.667v21.333c2.226,24.414,22.868,43.002,47.381,42.667h305.664
	c-15.103-33.952-15.103-72.715,0-106.667H122.138z"/>
<path style="fill:#64B5F6;" d="M309.424,74.669v53.333H160.09V74.669c0-5.891,4.776-10.667,10.667-10.667h128
	C304.648,64.003,309.424,68.778,309.424,74.669z"/>
<path style="fill:#2196F3;" d="M309.424,128.003v202.667c-0.022,4.306-2.63,8.177-6.613,9.813c-1.269,0.588-2.655,0.879-4.053,0.853
	c-2.829,0.037-5.542-1.125-7.467-3.2l-56.533-56.32l-56.533,56.32c-2.944,3.163-7.573,4.106-11.52,2.347
	c-3.983-1.636-6.592-5.507-6.613-9.813V128.003H309.424z"/>
<path style="fill:#455A64;" d="M426.757,85.336H117.424c-5.891,0-10.667-4.776-10.667-10.667s4.776-10.667,10.667-10.667h309.333
	c5.891,0,10.667,4.776,10.667,10.667S432.648,85.336,426.757,85.336z"/>
<g>
</g>
<g>
</g>
<g>
</g>
<g>
</g>
<g>
</g>
<g>
</g>
<g>
</g>
<g>
</g>
<g>
</g>
<g>
</g>
<g>
</g>
<g>
</g>
<g>
</g>
<g>
</g>
<g>
</g>
</svg>
